# xmcd
#
# Track frame offsets:
#	150
#	29415
#	54458
#	68322
#	82946
#	111698
#	138729
#	160443
#	169300
#	195737
#	210352
#	228636
#	248887
#	274762
#	305135
#	331630
#
# Disc length: 4743 seconds
#
# Revision: 0
# Processed by: cddbd v1.5.2PL0 Copyright (c) Steve Scherf et al.
# Submitted via: EasyCDDAExtractor 10.2.0.1
#
DISCID=e7128510
DTITLE=Various Artist - Ben In The Mix 109 - Go Crazy Tonight (8th October 20
DTITLE=09)
DYEAR=2009
DGENRE=House
TTITLE0=Paul Harris ft. Sam Obernik - The Take ///original mix
TTITLE1=Fedde Le Grand ft. Mitch Crown - Let Me Be Real ///extended mix
TTITLE2=Pixie Lott - Mama Do (Uh Oh, Uh Oh) ///linus loves vocal mix
TTITLE3=Patrick L - Kalas ///original mix
TTITLE4=Grant Nelson - Brave New World ///original mix
TTITLE5=Shik Stylko - Liquid Nights ///original mix
TTITLE6=Solitaire - You Got The Love ///you got the dub
TTITLE7=Patrick L - Bavern ///original mix
TTITLE8=Ministers De La Funk ft. Jocelyn Brown - Believe 2009 ///antoine clama
TTITLE8=ran and sandy vee mix
TTITLE9=Harry 'Choo Choo' Romero - King Of Drop ///original mix
TTITLE10=Bob Sinclar ft. Shabba Ranks - Love You No More ///pink is punk remix
TTITLE11=Stereo Touch - There Must Be An Angel ///d and f remix
TTITLE12=Adam K - Wrong Guru ///original mix
TTITLE13=Dirty South and Sebastian Ingrosso and David Guetta ft. Julie McKnight - 
TTITLE13=How Soon Is Now ///extended version
TTITLE14=U2 - I'll Go Crazy If I Don't Go Crazy Tonight ///dirty south remix
TTITLE15=Calvin Harris - Ready For The Weekend ///high contrast remix
EXTD=
EXTT0=
EXTT1=
EXTT2=
EXTT3=
EXTT4=
EXTT5=
EXTT6=
EXTT7=
EXTT8=
EXTT9=
EXTT10=
EXTT11=
EXTT12=
EXTT13=
EXTT14=
EXTT15=
PLAYORDER=
